Coordinates
version=1
nRows=13
nColumns=18
inDegrees=yes

Units are S.I. units (second, meters, Newtons, ...)
Angles are in degrees.

endheader
time	ground_thorax_rot_x	ground_thorax_rot_y	ground_thorax_rot_z	ground_thorax_tx	ground_thorax_ty	ground_thorax_tz	clav_prot	clav_elev	scapula_abduction	scapula_elevation	scapula_upward_rot	scapula_winging	plane_elv	shoulder_elv	axial_rot	elbow_flexion	pro_sup
      0.00000000	      1.29365214	     -2.52151640	     -8.81735942	     -0.00423131	      0.00403036	     -0.00078352	    -29.27540791	     -4.07694833	    -24.45556940	     -4.06600675	     12.11497027	      5.11369369	    -30.74242571	     18.31285536	     26.93231655	      0.00000000	     34.32000000
      0.01000000	      1.58075440	     -2.44173108	     -9.09129578	     -0.00423131	      0.00403036	     -0.00078352	    -29.52635416	     -3.98173386	    -24.70687238	     -4.10031825	     12.45075730	      4.95391718	    -29.80810133	     18.12985599	     25.39069844	      0.00000000	     34.32000000
      0.02000000	      1.33251893	     -2.81010138	     -8.95571920	     -0.00423131	      0.00403036	     -0.00078352	    -29.12284416	     -4.19027290	    -24.14446647	     -4.15474734	     12.16237697	      5.16576290	    -30.09429307	     18.50855002	     25.37337438	      0.00000000	     34.32000000
      0.03000000	      1.30559299	     -2.78318548	     -8.94558963	     -0.00423131	      0.00403036	     -0.00078352	    -29.13888160	     -4.12246138	    -24.21468152	     -4.09187954	     12.11752227	      5.15113743	    -30.09626676	     18.33551584	     25.40128366	      0.00000000	     34.32000000
      0.04000000	      1.29352118	     -2.65112347	     -8.98883472	     -0.00423131	      0.00403036	     -0.00078352	    -29.24964325	     -4.18711655	    -24.40810745	     -4.13679002	     12.07048274	      5.16674830	    -29.97494097	     18.39252638	     25.13029151	      0.00000000	     34.32000000
      0.05000000	      1.25471408	     -2.65574219	     -8.87004163	     -0.00423131	      0.00403036	     -0.00078352	    -29.20636464	     -4.11133791	    -24.36912449	     -4.06977094	     12.04855619	      5.15345697	    -30.35597848	     18.39599127	     25.20608355	      0.00000000	     34.32000000
      0.06000000	      1.18762079	     -2.62942107	     -8.95097610	     -0.00423131	      0.00403036	     -0.00078352	    -29.23771711	     -4.23934932	    -24.42229721	     -4.15331031	     11.98553108	      5.20791221	    -30.30575856	     18.47207137	     25.02532564	      0.00000000	     34.32000000
      0.07000000	      1.31033838	     -2.61219174	     -8.92290921	     -0.00423131	      0.00403036	     -0.00078352	    -29.23798060	     -4.10419795	    -24.35194524	     -4.10016281	     12.17472636	      5.11424579	    -30.45792554	     18.30555896	     25.78030250	      0.00000000	     34.32000000
      0.08000000	      1.17115274	     -2.61271209	     -8.90985665	     -0.00423131	      0.00403036	     -0.00078352	    -29.22075260	     -4.24476445	    -24.39827090	     -4.15358898	     11.97555875	      5.21506553	    -30.51773865	     18.40893218	     25.46463438	      0.00000000	     34.32000000
      0.09000000	      1.36713076	     -2.57813320	     -8.99146091	     -0.00423131	      0.00403036	     -0.00078352	    -29.29471706	     -4.12723631	    -24.48689465	     -4.09983938	     12.09198180	      5.13295410	    -29.83674190	     18.50216102	     23.74899422	      0.00000000	     34.32000000
      0.10000000	      1.27425372	     -2.63095975	     -8.92548184	     -0.00423131	      0.00403036	     -0.00078352	    -29.20217415	     -4.14080797	    -24.32421648	     -4.10610697	     12.10126077	      5.15105081	    -30.40295175	     18.53371759	     24.49699859	      0.00000000	     34.32000000
      0.11000000	      1.29032322	     -2.65458309	     -8.92974338	     -0.00423131	      0.00403036	     -0.00078352	    -29.16537602	     -4.13077273	    -24.30209720	     -4.07871037	     12.03719036	      5.16970488	    -29.99413887	     18.59148480	     23.34192534	      0.00000000	     34.32000000
      0.12000000	      1.29318978	     -2.65002868	     -9.02927014	     -0.00423131	      0.00403036	     -0.00078352	    -29.21141217	     -4.14369212	    -24.26655361	     -4.14286043	     12.22840068	      5.11866712	    -30.32082904	     18.31264737	     24.27793589	      0.00000000	     34.32000000
